<?xml version="1.0" encoding="UTF-8" standalone="no"?>
<svg
   height="24"
   width="24"
   version="1.1"
   id="svg1033"
   xmlns="http://www.w3.org/2000/svg"
   xmlns:svg="http://www.w3.org/2000/svg">
  <defs
     id="defs1037" />
  <g
     transform="translate(-273 -65)"
     id="g1031"
     style="fill:#555761;font-variation-settings:normal;opacity:0.9;vector-effect:none;fill-opacity:1;stroke:none;stroke-width:1;stroke-linecap:butt;stroke-linejoin:miter;stroke-miterlimit:4;stroke-dasharray:none;stroke-dashoffset:0;stroke-opacity:1;-inkscape-stroke:none;marker:none;stop-color:#000000;stop-opacity:1">
    <path
       color="#bebebe"
       d="M285 70c-1.108 0-2 .892-2 2v6c0 1.108.892 2 2 2s2-.892 2-2v-6c0-1.108-.892-2-2-2zm-5 5v1h1v2a3.981 3.981 0 0 0 3 3.861V84h-1v1h4v-1h-1v-2.139A3.981 3.981 0 0 0 289 78v-2h1v-1h-2v3c0 1.662-1.338 3-3 3s-3-1.338-3-3v-3z"
       fill="#666"
       overflow="visible"
       style="isolation:auto;mix-blend-mode:normal;marker:none;fill:#555761;font-variation-settings:normal;vector-effect:none;fill-opacity:1;stroke:none;stroke-width:1;stroke-linecap:butt;stroke-linejoin:miter;stroke-miterlimit:4;stroke-dasharray:none;stroke-dashoffset:0;stroke-opacity:1;-inkscape-stroke:none;stop-color:#000000;stop-opacity:1"
       id="path1029" />
  </g>
  <rect
     style="font-variation-settings:normal;vector-effect:none;fill:#555761;fill-opacity:1;stroke:none;stroke-width:0.992;stroke-linecap:square;stroke-linejoin:miter;stroke-miterlimit:4;stroke-dasharray:none;stroke-dashoffset:0;stroke-opacity:1;-inkscape-stroke:none;marker:none;stop-color:#000000"
     id="rect2480-1-6-2-9-1-2-7-0"
     width="1.248"
     height="3.96"
     x="-0.16577788"
     y="7.5240593"
     rx="0.5"
     ry="0.5"
     transform="rotate(-45)" />
</svg>
