<?xml version="1.0" encoding="UTF-8" standalone="no"?>
<svg
   height="24"
   width="24"
   version="1.1"
   id="svg1033"
   xmlns="http://www.w3.org/2000/svg"
   xmlns:svg="http://www.w3.org/2000/svg">
  <defs
     id="defs1037" />
  <path
     color="#bebebe"
     d="m 12,5 c -1.108,0 -2,0.892 -2,2 v 6 c 0,1.108 0.892,2 2,2 1.108,0 2,-0.892 2,-2 V 7 C 14,5.892 13.108,5 12,5 Z m -5,5 v 1 h 1 v 2 a 3.981,3.981 0 0 0 3,3.861 V 19 h -1 v 1 h 4 V 19 H 13 V 16.861 A 3.981,3.981 0 0 0 16,13 v -2 h 1 v -1 h -2 v 3 c 0,1.662 -1.338,3 -3,3 -1.662,0 -3,-1.338 -3,-3 v -3 z"
     fill="#666666"
     overflow="visible"
     style="isolation:auto;mix-blend-mode:normal;marker:none;font-variation-settings:normal;opacity:0.95;vector-effect:none;fill:#555761;fill-opacity:1;stroke:none;stroke-width:1;stroke-linecap:butt;stroke-linejoin:miter;stroke-miterlimit:4;stroke-dasharray:none;stroke-dashoffset:0;stroke-opacity:1;-inkscape-stroke:none;stop-color:#000000;stop-opacity:1"
     id="path1029" />
  <rect
     style="font-variation-settings:normal;vector-effect:none;fill:#555761;fill-opacity:1;stroke:none;stroke-width:0.992;stroke-linecap:square;stroke-linejoin:miter;stroke-miterlimit:4;stroke-dasharray:none;stroke-dashoffset:0;stroke-opacity:1;-inkscape-stroke:none;marker:none;stop-color:#000000"
     id="rect2480-1-6-2-9-1-2-7-0-9"
     width="1.248"
     height="1.9799999"
     x="-0.16577783"
     y="7.5240593"
     rx="0.5"
     ry="0.5"
     transform="rotate(-45)" />
</svg>
