<?xml version="1.0" encoding="UTF-8" standalone="no"?>
<svg
   height="24"
   width="24"
   version="1.1"
   id="svg1033"
   xmlns="http://www.w3.org/2000/svg"
   xmlns:svg="http://www.w3.org/2000/svg">
  <defs
     id="defs1037" />
  <path
     id="path1029"
     style="font-variation-settings:normal;opacity:0.75;isolation:auto;mix-blend-mode:normal;vector-effect:none;fill:#555761;fill-opacity:1;stroke:none;stroke-width:1;stroke-linecap:butt;stroke-linejoin:miter;stroke-miterlimit:4;stroke-dasharray:none;stroke-dashoffset:0;stroke-opacity:1;-inkscape-stroke:none;marker:none;stop-color:#000000;stop-opacity:1"
     d="m 12,5 c -1.107999,0 -2,0.8920011 -2,2 v 3.041016 l 1.945312,1.945312 c 0.195869,0.195869 0.625285,0.07867 0.625285,0.07867 l -0.801066,0.80414 c -0.195492,0.196243 -0.511163,0.195868 -0.707031,0 L 10,11.806641 V 13 c 0,1.107999 0.892001,2 2,2 1.107999,0 2,-0.892001 2,-2 V 7 C 14,5.8920011 13.107999,5 12,5 Z m -5,5 v 1 h 1 v 2 c -0.00141,1.821959 1.2342241,3.41236 3,3.861328 V 19 h -1 v 1 h 4 V 19 H 13 V 16.861328 C 14.765776,16.41236 16.001414,14.821959 16,13 v -2 h 1 v -1 h -2 v 3 c 0,1.661998 -1.338002,3 -3,3 -1.661998,0 -3,-1.338002 -3,-3 V 10.806641 L 8.1933594,10 Z" />
  <rect
     style="font-variation-settings:normal;vector-effect:none;fill:#555761;fill-opacity:1;stroke:none;stroke-width:0.992;stroke-linecap:square;stroke-linejoin:miter;stroke-miterlimit:4;stroke-dasharray:none;stroke-dashoffset:0;stroke-opacity:1;-inkscape-stroke:none;marker:none;stop-color:#000000"
     id="rect2480-1-6-2-9"
     width="1.248"
     height="9.8999996"
     x="-0.16577816"
     y="7.5240593"
     rx="0.5"
     ry="0.5"
     transform="rotate(-45)" />
</svg>
