<?xml version="1.0" encoding="UTF-8" standalone="no"?>
<svg
   height="24"
   width="24"
   version="1.1"
   id="svg1033"
   xmlns="http://www.w3.org/2000/svg"
   xmlns:svg="http://www.w3.org/2000/svg">
  <defs
     id="defs1037" />
  <path
     id="path1029"
     style="font-variation-settings:normal;opacity:0.65;isolation:auto;mix-blend-mode:normal;vector-effect:none;fill:#555761;fill-opacity:1;stroke:none;stroke-width:1;stroke-linecap:butt;stroke-linejoin:miter;stroke-miterlimit:4;stroke-dasharray:none;stroke-dashoffset:0;stroke-opacity:1;-inkscape-stroke:none;marker:none;stop-color:#000000;stop-opacity:1"
     d="m 12,5 c -1.107999,0 -2,0.8920011 -2,2 v 3.033203 l 3.8125,3.810547 C 13.931689,13.587232 14,13.302461 14,13 V 7 C 14,5.8920011 13.107999,5 12,5 Z m -5,5 v 1 h 1 v 2 c -0.00141,1.821959 1.2342241,3.41236 3,3.861328 V 19 h -1 v 1 h 4 V 19 H 13 V 16.861328 C 14.765776,16.41236 16.001414,14.821959 16,13 v -2 h 1 v -1 h -2 v 3 c 0,0.581507 -0.167011,1.12133 -0.451172,1.580078 l 0.946411,0.16207 -0.92102,0.921914 c -0.195774,0.195964 -0.511163,0.195869 -0.707031,0 l -0.181641,-0.18164 C 13.205567,15.808081 12.626212,16 12,16 10.338002,16 9,14.661998 9,13 V 10.796875 L 8.203125,10 Z m 3,1.796875 V 13 c 0,1.107999 0.892001,2 2,2 0.348186,0 0.674437,-0.08895 0.958984,-0.244141 z" />
  <rect
     style="font-variation-settings:normal;vector-effect:none;fill:#555761;fill-opacity:1;stroke:none;stroke-width:0.992003;stroke-linecap:square;stroke-linejoin:miter;stroke-miterlimit:4;stroke-dasharray:none;stroke-dashoffset:0;stroke-opacity:1;-inkscape-stroke:none;marker:none;stop-color:#000000"
     id="rect2480-1-6-2-9-1"
     width="1.248"
     height="13.86"
     x="-0.16577819"
     y="7.5240593"
     rx="0.5"
     ry="0.5"
     transform="rotate(-45)" />
</svg>
